solid OpenSCAD_Model
  facet normal 0.951057 0.309017 0
    outer loop
      vertex 11.92 9 10.55
      vertex 11.3623 10.7163 0
      vertex 11.3623 10.7163 10.55
    endloop
  endfacet
  facet normal 0.951057 0.309017 0
    outer loop
      vertex 11.3623 10.7163 0
      vertex 11.92 9 10.55
      vertex 11.92 9 0
    endloop
  endfacet
  facet normal 0.587785 -0.809017 0
    outer loop
      vertex 9.90233 6.22291 0
      vertex 11.3623 7.28367 10.55
      vertex 9.90233 6.22291 10.55
    endloop
  endfacet
  facet normal 0.587785 -0.809017 0
    outer loop
      vertex 11.3623 7.28367 10.55
      vertex 9.90233 6.22291 0
      vertex 11.3623 7.28367 0
    endloop
  endfacet
  facet normal -0.587785 0.809017 0
    outer loop
      vertex 8.09767 11.7771 0
      vertex 6.63767 10.7163 10.55
      vertex 8.09767 11.7771 10.55
    endloop
  endfacet
  facet normal -0.587785 0.809017 0
    outer loop
      vertex 6.63767 10.7163 10.55
      vertex 8.09767 11.7771 0
      vertex 6.63767 10.7163 0
    endloop
  endfacet
  facet normal 0.587785 0.809017 -0
    outer loop
      vertex 11.3623 10.7163 0
      vertex 9.90233 11.7771 10.55
      vertex 11.3623 10.7163 10.55
    endloop
  endfacet
  facet normal 0.587785 0.809017 0
    outer loop
      vertex 9.90233 11.7771 10.55
      vertex 11.3623 10.7163 0
      vertex 9.90233 11.7771 0
    endloop
  endfacet
  facet normal -0 0 1
    outer loop
      vertex 3 18 12
      vertex 15 14 12
      vertex 15 18 12
    endloop
  endfacet
  facet normal 0 0 1
    outer loop
      vertex 3 6 12
      vertex 15 14 12
      vertex 3 18 12
    endloop
  endfacet
  facet normal 0 0 1
    outer loop
      vertex 15 14 12
      vertex 3 6 12
      vertex 15 6 12
    endloop
  endfacet
  facet normal -0.951057 0.309017 0
    outer loop
      vertex 6.08 9 0
      vertex 6.63767 10.7163 10.55
      vertex 6.63767 10.7163 0
    endloop
  endfacet
  facet normal -0.951057 0.309017 0
    outer loop
      vertex 6.63767 10.7163 10.55
      vertex 6.08 9 0
      vertex 6.08 9 10.55
    endloop
  endfacet
  facet normal 0 0 -1
    outer loop
      vertex 6.63767 10.7163 0
      vertex 8.175 11.2 0
      vertex 8.175 9.825 0
    endloop
  endfacet
  facet normal 0 0 -1
    outer loop
      vertex 6.63767 10.7163 0
      vertex 8.175 9.825 0
      vertex 6.8 9.825 0
    endloop
  endfacet
  facet normal -0 0 -1
    outer loop
      vertex 8.175 11.2 0
      vertex 6.63767 10.7163 0
      vertex 8.09767 11.7771 0
    endloop
  endfacet
  facet normal 0 0 -1
    outer loop
      vertex 6.8 8.175 0
      vertex 6.08 9 0
      vertex 6.8 9.825 0
    endloop
  endfacet
  facet normal -0 0 -1
    outer loop
      vertex 6.8 9.825 0
      vertex 6.08 9 0
      vertex 6.63767 10.7163 0
    endloop
  endfacet
  facet normal 0 0 -1
    outer loop
      vertex 9.90233 6.22291 0
      vertex 8.175 6.8 0
      vertex 9.825 6.8 0
    endloop
  endfacet
  facet normal 0 0 -1
    outer loop
      vertex 8.09767 6.22291 0
      vertex 8.175 6.8 0
      vertex 9.90233 6.22291 0
    endloop
  endfacet
  facet normal 0 0 -1
    outer loop
      vertex 6.63767 7.28367 0
      vertex 8.175 6.8 0
      vertex 8.09767 6.22291 0
    endloop
  endfacet
  facet normal 0 0 -1
    outer loop
      vertex 8.175 6.8 0
      vertex 6.63767 7.28367 0
      vertex 8.175 8.175 0
    endloop
  endfacet
  facet normal 0 0 -1
    outer loop
      vertex 6.08 9 0
      vertex 6.8 8.175 0
      vertex 6.63767 7.28367 0
    endloop
  endfacet
  facet normal -0 0 -1
    outer loop
      vertex 8.175 8.175 0
      vertex 6.63767 7.28367 0
      vertex 6.8 8.175 0
    endloop
  endfacet
  facet normal 0 0 -1
    outer loop
      vertex 11.2 8.175 0
      vertex 11.92 9 0
      vertex 11.3623 7.28367 0
    endloop
  endfacet
  facet normal 0 0 -1
    outer loop
      vertex 11.2 9.825 0
      vertex 11.92 9 0
      vertex 11.2 8.175 0
    endloop
  endfacet
  facet normal 0 0 -1
    outer loop
      vertex 9.825 6.8 0
      vertex 11.3623 7.28367 0
      vertex 9.90233 6.22291 0
    endloop
  endfacet
  facet normal 0 0 -1
    outer loop
      vertex 9.825 8.175 0
      vertex 11.3623 7.28367 0
      vertex 9.825 6.8 0
    endloop
  endfacet
  facet normal 0 0 -1
    outer loop
      vertex 11.3623 7.28367 0
      vertex 9.825 8.175 0
      vertex 11.2 8.175 0
    endloop
  endfacet
  facet normal 0 0 -1
    outer loop
      vertex 11.92 9 0
      vertex 11.2 9.825 0
      vertex 11.3623 10.7163 0
    endloop
  endfacet
  facet normal 0 0 -1
    outer loop
      vertex 9.825 9.825 0
      vertex 11.3623 10.7163 0
      vertex 11.2 9.825 0
    endloop
  endfacet
  facet normal -0 0 -1
    outer loop
      vertex 11.3623 10.7163 0
      vertex 9.825 9.825 0
      vertex 9.825 11.2 0
    endloop
  endfacet
  facet normal 0 0 -1
    outer loop
      vertex 11.3623 10.7163 0
      vertex 9.825 11.2 0
      vertex 9.90233 11.7771 0
    endloop
  endfacet
  facet normal 0 0 -1
    outer loop
      vertex 8.175 11.2 0
      vertex 9.90233 11.7771 0
      vertex 9.825 11.2 0
    endloop
  endfacet
  facet normal -0 0 -1
    outer loop
      vertex 9.90233 11.7771 0
      vertex 8.175 11.2 0
      vertex 8.09767 11.7771 0
    endloop
  endfacet
  facet normal 0.951057 -0.309017 0
    outer loop
      vertex 11.3623 7.28367 10.55
      vertex 11.92 9 0
      vertex 11.92 9 10.55
    endloop
  endfacet
  facet normal 0.951057 -0.309017 0
    outer loop
      vertex 11.92 9 0
      vertex 11.3623 7.28367 10.55
      vertex 11.3623 7.28367 0
    endloop
  endfacet
  facet normal 0 1 -0
    outer loop
      vertex 9.90233 11.7771 0
      vertex 8.09767 11.7771 10.55
      vertex 9.90233 11.7771 10.55
    endloop
  endfacet
  facet normal 0 1 0
    outer loop
      vertex 8.09767 11.7771 10.55
      vertex 9.90233 11.7771 0
      vertex 8.09767 11.7771 0
    endloop
  endfacet
  facet normal -0.951057 -0.309017 0
    outer loop
      vertex 6.63767 7.28367 0
      vertex 6.08 9 10.55
      vertex 6.08 9 0
    endloop
  endfacet
  facet normal -0.951057 -0.309017 0
    outer loop
      vertex 6.08 9 10.55
      vertex 6.63767 7.28367 0
      vertex 6.63767 7.28367 10.55
    endloop
  endfacet
  facet normal 0 -1 0
    outer loop
      vertex 8.09767 6.22291 0
      vertex 9.90233 6.22291 10.55
      vertex 8.09767 6.22291 10.55
    endloop
  endfacet
  facet normal 0 -1 -0
    outer loop
      vertex 9.90233 6.22291 10.55
      vertex 8.09767 6.22291 0
      vertex 9.90233 6.22291 0
    endloop
  endfacet
  facet normal -0.587785 -0.809017 0
    outer loop
      vertex 6.63767 7.28367 0
      vertex 8.09767 6.22291 10.55
      vertex 6.63767 7.28367 10.55
    endloop
  endfacet
  facet normal -0.587785 -0.809017 -0
    outer loop
      vertex 8.09767 6.22291 10.55
      vertex 6.63767 7.28367 0
      vertex 8.09767 6.22291 0
    endloop
  endfacet
  facet normal 1 -0 0
    outer loop
      vertex 8.175 9.825 10.55
      vertex 8.175 11.2 0
      vertex 8.175 11.2 10.55
    endloop
  endfacet
  facet normal 1 0 0
    outer loop
      vertex 8.175 11.2 0
      vertex 8.175 9.825 10.55
      vertex 8.175 9.825 0
    endloop
  endfacet
  facet normal 1 -0 0
    outer loop
      vertex 8.175 6.8 10.55
      vertex 8.175 8.175 0
      vertex 8.175 8.175 10.55
    endloop
  endfacet
  facet normal 1 0 0
    outer loop
      vertex 8.175 8.175 0
      vertex 8.175 6.8 10.55
      vertex 8.175 6.8 0
    endloop
  endfacet
  facet normal -1 0 0
    outer loop
      vertex 9.825 6.8 0
      vertex 9.825 8.175 10.55
      vertex 9.825 8.175 0
    endloop
  endfacet
  facet normal -1 -0 0
    outer loop
      vertex 9.825 8.175 10.55
      vertex 9.825 6.8 0
      vertex 9.825 6.8 10.55
    endloop
  endfacet
  facet normal -1 0 0
    outer loop
      vertex 9.825 9.825 0
      vertex 9.825 11.2 10.55
      vertex 9.825 11.2 0
    endloop
  endfacet
  facet normal -1 -0 0
    outer loop
      vertex 9.825 11.2 10.55
      vertex 9.825 9.825 0
      vertex 9.825 9.825 10.55
    endloop
  endfacet
  facet normal 0 -1 0
    outer loop
      vertex 8.175 11.2 0
      vertex 9.825 11.2 10.55
      vertex 8.175 11.2 10.55
    endloop
  endfacet
  facet normal 0 -1 -0
    outer loop
      vertex 9.825 11.2 10.55
      vertex 8.175 11.2 0
      vertex 9.825 11.2 0
    endloop
  endfacet
  facet normal 0 1 -0
    outer loop
      vertex 9.825 6.8 0
      vertex 8.175 6.8 10.55
      vertex 9.825 6.8 10.55
    endloop
  endfacet
  facet normal 0 1 0
    outer loop
      vertex 8.175 6.8 10.55
      vertex 9.825 6.8 0
      vertex 8.175 6.8 0
    endloop
  endfacet
  facet normal 1 -0 0
    outer loop
      vertex 6.8 8.175 10.55
      vertex 6.8 9.825 0
      vertex 6.8 9.825 10.55
    endloop
  endfacet
  facet normal 1 0 0
    outer loop
      vertex 6.8 9.825 0
      vertex 6.8 8.175 10.55
      vertex 6.8 8.175 0
    endloop
  endfacet
  facet normal -1 0 0
    outer loop
      vertex 11.2 8.175 0
      vertex 11.2 9.825 10.55
      vertex 11.2 9.825 0
    endloop
  endfacet
  facet normal -1 -0 0
    outer loop
      vertex 11.2 9.825 10.55
      vertex 11.2 8.175 0
      vertex 11.2 8.175 10.55
    endloop
  endfacet
  facet normal 0 1 -0
    outer loop
      vertex 8.175 8.175 0
      vertex 6.8 8.175 10.55
      vertex 8.175 8.175 10.55
    endloop
  endfacet
  facet normal 0 1 0
    outer loop
      vertex 6.8 8.175 10.55
      vertex 8.175 8.175 0
      vertex 6.8 8.175 0
    endloop
  endfacet
  facet normal 0 1 -0
    outer loop
      vertex 11.2 8.175 0
      vertex 9.825 8.175 10.55
      vertex 11.2 8.175 10.55
    endloop
  endfacet
  facet normal 0 1 0
    outer loop
      vertex 9.825 8.175 10.55
      vertex 11.2 8.175 0
      vertex 9.825 8.175 0
    endloop
  endfacet
  facet normal 0 -1 0
    outer loop
      vertex 6.8 9.825 0
      vertex 8.175 9.825 10.55
      vertex 6.8 9.825 10.55
    endloop
  endfacet
  facet normal 0 -1 -0
    outer loop
      vertex 8.175 9.825 10.55
      vertex 6.8 9.825 0
      vertex 8.175 9.825 0
    endloop
  endfacet
  facet normal 0 -1 0
    outer loop
      vertex 9.825 9.825 0
      vertex 11.2 9.825 10.55
      vertex 9.825 9.825 10.55
    endloop
  endfacet
  facet normal 0 -1 -0
    outer loop
      vertex 11.2 9.825 10.55
      vertex 9.825 9.825 0
      vertex 11.2 9.825 0
    endloop
  endfacet
  facet normal 0 0 -1
    outer loop
      vertex 0 6 0
      vertex 1.09375 16.75 0
      vertex 1.09375 6.45 0
    endloop
  endfacet
  facet normal 0 0 -1
    outer loop
      vertex 0 6 0
      vertex 1.09375 6.45 0
      vertex 1.02344 6.17812 0
    endloop
  endfacet
  facet normal 0 0 -1
    outer loop
      vertex 17.0594 16.3375 0
      vertex 18 18 0
      vertex 18 0 0
    endloop
  endfacet
  facet normal 0 0 -1
    outer loop
      vertex 17.0594 1.2625 0
      vertex 18 0 0
      vertex 17.1375 0.825 0
    endloop
  endfacet
  facet normal 0 0 -1
    outer loop
      vertex 18 0 0
      vertex 16.575 0.7625 0
      vertex 17.1375 0.825 0
    endloop
  endfacet
  facet normal 0 0 -1
    outer loop
      vertex 9 0 0
      vertex 16.575 0.7625 0
      vertex 18 0 0
    endloop
  endfacet
  facet normal -0 0 -1
    outer loop
      vertex 16.575 0.7625 0
      vertex 9 0 0
      vertex 9.4125 0.7625 0
    endloop
  endfacet
  facet normal 0 0 -1
    outer loop
      vertex 9 0 0
      vertex 8.9125 0.8875 0
      vertex 9.4125 0.7625 0
    endloop
  endfacet
  facet normal 0 0 -1
    outer loop
      vertex 9 0 0
      vertex 1.375 0.8875 0
      vertex 8.9125 0.8875 0
    endloop
  endfacet
  facet normal 0 0 -1
    outer loop
      vertex 0 0 0
      vertex 1.375 0.8875 0
      vertex 9 0 0
    endloop
  endfacet
  facet normal 0 0 -1
    outer loop
      vertex 0 6 0
      vertex 1.0625 6.1 0
      vertex 1.0625 0.825 0
    endloop
  endfacet
  facet normal 0 0 -1
    outer loop
      vertex 0 6 0
      vertex 1.0625 0.825 0
      vertex 0 0 0
    endloop
  endfacet
  facet normal 0 0 -1
    outer loop
      vertex 1.375 0.8875 0
      vertex 0 0 0
      vertex 1.0625 0.825 0
    endloop
  endfacet
  facet normal 0 0 -1
    outer loop
      vertex 17.1375 16.9 0
      vertex 18 18 0
      vertex 17.1719 16.7594 0
    endloop
  endfacet
  facet normal 0 0 -1
    outer loop
      vertex 16.95 16.975 0
      vertex 18 18 0
      vertex 17.1375 16.9 0
    endloop
  endfacet
  facet normal 0 0 -1
    outer loop
      vertex 7.15 16.975 0
      vertex 18 18 0
      vertex 16.95 16.975 0
    endloop
  endfacet
  facet normal 0 0 -1
    outer loop
      vertex 7.15 16.975 0
      vertex 6 18 0
      vertex 18 18 0
    endloop
  endfacet
  facet normal 0 0 -1
    outer loop
      vertex 6.4 16.8625 0
      vertex 6 18 0
      vertex 7.15 16.975 0
    endloop
  endfacet
  facet normal 0 0 -1
    outer loop
      vertex 1.25 16.8625 0
      vertex 6 18 0
      vertex 6.4 16.8625 0
    endloop
  endfacet
  facet normal 0 0 -1
    outer loop
      vertex 0 18 0
      vertex 1.25 16.8625 0
      vertex 1.0625 16.9 0
    endloop
  endfacet
  facet normal -0 0 -1
    outer loop
      vertex 1.0625 6.1 0
      vertex 0 6 0
      vertex 1.02344 6.17812 0
    endloop
  endfacet
  facet normal 0 0 -1
    outer loop
      vertex 0 18 0
      vertex 1.09375 16.75 0
      vertex 0 6 0
    endloop
  endfacet
  facet normal 0 0 -1
    outer loop
      vertex 1.25 16.8625 0
      vertex 0 18 0
      vertex 6 18 0
    endloop
  endfacet
  facet normal 0 0 -1
    outer loop
      vertex 1.09375 16.75 0
      vertex 0 18 0
      vertex 1.0625 16.9 0
    endloop
  endfacet
  facet normal 0 0 -1
    outer loop
      vertex 17.0594 16.3375 0
      vertex 18 0 0
      vertex 17.0594 1.2625 0
    endloop
  endfacet
  facet normal 0 0 -1
    outer loop
      vertex 18 18 0
      vertex 17.0594 16.3375 0
      vertex 17.1719 16.7594 0
    endloop
  endfacet
  facet normal 0.179425 -0.897123 0.403705
    outer loop
      vertex 6 3 4
      vertex 3 6 12
      vertex 0 0 0
    endloop
  endfacet
  facet normal 0 -0.936329 0.351123
    outer loop
      vertex 6 3 4
      vertex 15 6 12
      vertex 3 6 12
    endloop
  endfacet
  facet normal -0.191249 -0.828744 0.525934
    outer loop
      vertex 12 0.599999 2.4
      vertex 15 6 12
      vertex 6 3 4
    endloop
  endfacet
  facet normal 0.097794 -0.880146 0.464521
    outer loop
      vertex 18 0 0
      vertex 15 6 12
      vertex 12 0.599999 2.4
    endloop
  endfacet
  facet normal 0 -0.970143 0.242535
    outer loop
      vertex 18 0 0
      vertex 12 0.599999 2.4
      vertex 9 0 0
    endloop
  endfacet
  facet normal -0.212899 -0.851594 0.479022
    outer loop
      vertex 9 0 0
      vertex 12 0.599999 2.4
      vertex 6 3 4
    endloop
  endfacet
  facet normal 0 -0.8 0.6
    outer loop
      vertex 9 0 0
      vertex 6 3 4
      vertex 0 0 0
    endloop
  endfacet
  facet normal 0.972334 0.173631 0.156268
    outer loop
      vertex 18 0 0
      vertex 15.75 9 4
      vertex 15 6 12
    endloop
  endfacet
  facet normal 0.995634 0 0.0933407
    outer loop
      vertex 15.75 9 4
      vertex 15 14 12
      vertex 15 6 12
    endloop
  endfacet
  facet normal 0.682891 -0.588993 0.432142
    outer loop
      vertex 15.75 9 4
      vertex 17.1 13.5 8
      vertex 15 14 12
    endloop
  endfacet
  facet normal 0.885398 0 0.464834
    outer loop
      vertex 17.1 13.5 8
      vertex 15 18 12
      vertex 15 14 12
    endloop
  endfacet
  facet normal 0.943962 0.230746 0.235991
    outer loop
      vertex 17.1 13.5 8
      vertex 18 18 0
      vertex 15 18 12
    endloop
  endfacet
  facet normal 0.965601 -0.257494 -0.0362098
    outer loop
      vertex 18 18 0
      vertex 17.1 13.5 8
      vertex 15.75 9 4
    endloop
  endfacet
  facet normal 0.871576 -0 0.490261
    outer loop
      vertex 18 0 0
      vertex 18 18 0
      vertex 15.75 9 4
    endloop
  endfacet
  facet normal 0.3698 0.9245 0.09245
    outer loop
      vertex 18 18 0
      vertex 15 18.9 3
      vertex 15 18 12
    endloop
  endfacet
  facet normal -0.163605 0.98163 0.098163
    outer loop
      vertex 15 18 12
      vertex 15 18.9 3
      vertex 6 17.1 6
    endloop
  endfacet
  facet normal 0 0.988936 -0.148341
    outer loop
      vertex 15 18 12
      vertex 6 17.1 6
      vertex 3 18 12
    endloop
  endfacet
  facet normal 0.195881 0.979404 -0.0489703
    outer loop
      vertex 3 18 12
      vertex 6 17.1 6
      vertex 0 18 0
    endloop
  endfacet
  facet normal 0 0.988936 0.148341
    outer loop
      vertex 6 17.1 6
      vertex 6 18 0
      vertex 0 18 0
    endloop
  endfacet
  facet normal -0.146735 0.978232 0.146735
    outer loop
      vertex 15 18.9 3
      vertex 6 18 0
      vertex 6 17.1 6
    endloop
  endfacet
  facet normal 0 0.957826 -0.287348
    outer loop
      vertex 15 18.9 3
      vertex 18 18 0
      vertex 6 18 0
    endloop
  endfacet
  facet normal -0.950915 -0.198107 0.237729
    outer loop
      vertex 2.25 14.4 6
      vertex 3 18 12
      vertex 0 18 0
    endloop
  endfacet
  facet normal -0.972659 0.231586 -0.017369
    outer loop
      vertex 3 18 12
      vertex 2.25 14.4 6
      vertex 0.9 9 9.6
    endloop
  endfacet
  facet normal -0.752577 0 0.658505
    outer loop
      vertex 3 6 12
      vertex 3 18 12
      vertex 0.9 9 9.6
    endloop
  endfacet
  facet normal -0.872872 -0.436436 0.218218
    outer loop
      vertex 3 6 12
      vertex 0.9 9 9.6
      vertex 0 6 0
    endloop
  endfacet
  facet normal -0.968071 0.250363 0.0125181
    outer loop
      vertex 0.9 9 9.6
      vertex 2.25 14.4 6
      vertex 0 6 0
    endloop
  endfacet
  facet normal -0.970143 0 0.242536
    outer loop
      vertex 3 6 12
      vertex 0 6 0
      vertex 0 0 0
    endloop
  endfacet
  facet normal -0.936329 0 0.351123
    outer loop
      vertex 2.25 14.4 6
      vertex 0 18 0
      vertex 0 6 0
    endloop
  endfacet
  facet normal -0.179425 0.897123 -0.403705
    outer loop
      vertex 1.375 0.8875 0
      vertex 3.7 6.1 10.55
      vertex 6.4 3.4 3.35
    endloop
  endfacet
  facet normal -0.179425 0.897123 -0.403705
    outer loop
      vertex 3.7 6.1 10.55
      vertex 1.375 0.8875 0
      vertex 1.0625 0.825 0
    endloop
  endfacet
  facet normal 0 0.936329 -0.351123
    outer loop
      vertex 6.4 3.4 3.35
      vertex 3.7 6.1 10.55
      vertex 14.5 6.1 10.55
    endloop
  endfacet
  facet normal 0.191249 0.828744 -0.525934
    outer loop
      vertex 11.8 1.24 1.91
      vertex 6.4 3.4 3.35
      vertex 14.5 6.1 10.55
    endloop
  endfacet
  facet normal -0.0977936 0.880146 -0.464521
    outer loop
      vertex 16.575 0.7625 0
      vertex 14.5 6.1 10.55
      vertex 17.1375 0.825 0
    endloop
  endfacet
  facet normal -0.097794 0.880146 -0.464521
    outer loop
      vertex 14.5 6.1 10.55
      vertex 16.575 0.7625 0
      vertex 11.8 1.24 1.91
    endloop
  endfacet
  facet normal 0 0.970143 -0.242536
    outer loop
      vertex 16.575 0.7625 0
      vertex 9.4125 0.7625 0
      vertex 11.8 1.24 1.91
    endloop
  endfacet
  facet normal 0.212899 0.851594 -0.479022
    outer loop
      vertex 9.4125 0.7625 0
      vertex 6.4 3.4 3.35
      vertex 11.8 1.24 1.91
    endloop
  endfacet
  facet normal 0.212899 0.851594 -0.479022
    outer loop
      vertex 6.4 3.4 3.35
      vertex 9.4125 0.7625 0
      vertex 8.9125 0.8875 0
    endloop
  endfacet
  facet normal 0 0.8 -0.6
    outer loop
      vertex 8.9125 0.8875 0
      vertex 1.375 0.8875 0
      vertex 6.4 3.4 3.35
    endloop
  endfacet
  facet normal -0.972334 -0.173631 -0.156268
    outer loop
      vertex 17.0594 1.2625 0
      vertex 14.5 6.1 10.55
      vertex 15.175 8.8 3.35
    endloop
  endfacet
  facet normal -0.972333 -0.173635 -0.156266
    outer loop
      vertex 14.5 6.1 10.55
      vertex 17.0594 1.2625 0
      vertex 17.1375 0.825 0
    endloop
  endfacet
  facet normal -0.995634 0 -0.0933406
    outer loop
      vertex 15.175 8.8 3.35
      vertex 14.5 6.1 10.55
      vertex 14.5 13.3 10.55
    endloop
  endfacet
  facet normal -0.682891 0.588993 -0.432142
    outer loop
      vertex 15.175 8.8 3.35
      vertex 14.5 13.3 10.55
      vertex 16.39 12.85 6.95
    endloop
  endfacet
  facet normal -0.885398 0 -0.464834
    outer loop
      vertex 16.39 12.85 6.95
      vertex 14.5 13.3 10.55
      vertex 14.5 16.9 10.55
    endloop
  endfacet
  facet normal -0.943964 -0.230742 -0.235988
    outer loop
      vertex 16.39 12.85 6.95
      vertex 17.1375 16.9 0
      vertex 17.1719 16.7594 0
    endloop
  endfacet
  facet normal -0.943962 -0.230746 -0.235991
    outer loop
      vertex 17.1375 16.9 0
      vertex 16.39 12.85 6.95
      vertex 14.5 16.9 10.55
    endloop
  endfacet
  facet normal -0.965601 0.257496 0.0362114
    outer loop
      vertex 17.0594 16.3375 0
      vertex 16.39 12.85 6.95
      vertex 17.1719 16.7594 0
    endloop
  endfacet
  facet normal -0.965601 0.257494 0.0362101
    outer loop
      vertex 16.39 12.85 6.95
      vertex 17.0594 16.3375 0
      vertex 15.175 8.8 3.35
    endloop
  endfacet
  facet normal -0.871576 0 -0.490261
    outer loop
      vertex 17.0594 1.2625 0
      vertex 15.175 8.8 3.35
      vertex 17.0594 16.3375 0
    endloop
  endfacet
  facet normal -0.369803 -0.924499 -0.0924542
    outer loop
      vertex 17.1375 16.9 0
      vertex 14.5 17.71 2.45
      vertex 16.95 16.975 0
    endloop
  endfacet
  facet normal -0.3698 -0.9245 -0.09245
    outer loop
      vertex 14.5 17.71 2.45
      vertex 17.1375 16.9 0
      vertex 14.5 16.9 10.55
    endloop
  endfacet
  facet normal 0.163605 -0.98163 -0.0981629
    outer loop
      vertex 14.5 16.9 10.55
      vertex 6.4 16.09 5.15
      vertex 14.5 17.71 2.45
    endloop
  endfacet
  facet normal 0 -0.988936 0.14834
    outer loop
      vertex 14.5 16.9 10.55
      vertex 3.7 16.9 10.55
      vertex 6.4 16.09 5.15
    endloop
  endfacet
  facet normal -0.195881 -0.979404 0.0489702
    outer loop
      vertex 1.0625 16.9 0
      vertex 6.4 16.09 5.15
      vertex 3.7 16.9 10.55
    endloop
  endfacet
  facet normal -0.195883 -0.979404 0.0489723
    outer loop
      vertex 6.4 16.09 5.15
      vertex 1.0625 16.9 0
      vertex 1.25 16.8625 0
    endloop
  endfacet
  facet normal 0 -0.988936 -0.14834
    outer loop
      vertex 6.4 16.09 5.15
      vertex 1.25 16.8625 0
      vertex 6.4 16.8625 0
    endloop
  endfacet
  facet normal 0.146736 -0.978232 -0.146735
    outer loop
      vertex 7.15 16.975 0
      vertex 6.4 16.09 5.15
      vertex 6.4 16.8625 0
    endloop
  endfacet
  facet normal 0.146735 -0.978232 -0.146735
    outer loop
      vertex 6.4 16.09 5.15
      vertex 7.15 16.975 0
      vertex 14.5 17.71 2.45
    endloop
  endfacet
  facet normal 0 -0.957826 0.287347
    outer loop
      vertex 14.5 17.71 2.45
      vertex 7.15 16.975 0
      vertex 16.95 16.975 0
    endloop
  endfacet
  facet normal 0.950915 0.198107 -0.237729
    outer loop
      vertex 3.025 13.66 5.15
      vertex 1.0625 16.9 0
      vertex 3.7 16.9 10.55
    endloop
  endfacet
  facet normal 0.950915 0.198108 -0.237728
    outer loop
      vertex 1.0625 16.9 0
      vertex 3.025 13.66 5.15
      vertex 1.09375 16.75 0
    endloop
  endfacet
  facet normal 0.972659 -0.231586 0.0173689
    outer loop
      vertex 3.7 16.9 10.55
      vertex 1.81 8.8 8.39
      vertex 3.025 13.66 5.15
    endloop
  endfacet
  facet normal 0.752577 0 -0.658505
    outer loop
      vertex 3.7 6.1 10.55
      vertex 1.81 8.8 8.39
      vertex 3.7 16.9 10.55
    endloop
  endfacet
  facet normal 0.872872 0.436436 -0.218218
    outer loop
      vertex 1.0625 6.1 0
      vertex 1.81 8.8 8.39
      vertex 3.7 6.1 10.55
    endloop
  endfacet
  facet normal 0.872872 0.436436 -0.218218
    outer loop
      vertex 1.81 8.8 8.39
      vertex 1.0625 6.1 0
      vertex 1.02344 6.17812 0
    endloop
  endfacet
  facet normal 0.968071 -0.250363 -0.0125181
    outer loop
      vertex 1.81 8.8 8.39
      vertex 1.09375 6.45 0
      vertex 3.025 13.66 5.15
    endloop
  endfacet
  facet normal 0.968071 -0.250363 -0.0125181
    outer loop
      vertex 1.09375 6.45 0
      vertex 1.81 8.8 8.39
      vertex 1.02344 6.17812 0
    endloop
  endfacet
  facet normal 0.970143 0 -0.242536
    outer loop
      vertex 3.7 6.1 10.55
      vertex 1.0625 0.825 0
      vertex 1.0625 6.1 0
    endloop
  endfacet
  facet normal 0.936329 0 -0.351123
    outer loop
      vertex 3.025 13.66 5.15
      vertex 1.09375 6.45 0
      vertex 1.09375 16.75 0
    endloop
  endfacet
  facet normal 0 0 -1
    outer loop
      vertex 11.92 9 10.55
      vertex 14.5 13.3 10.55
      vertex 14.5 6.1 10.55
    endloop
  endfacet
  facet normal 0 0 -1
    outer loop
      vertex 11.3623 10.7163 10.55
      vertex 14.5 13.3 10.55
      vertex 11.92 9 10.55
    endloop
  endfacet
  facet normal 0 0 -1
    outer loop
      vertex 14.5 6.1 10.55
      vertex 11.3623 7.28367 10.55
      vertex 11.92 9 10.55
    endloop
  endfacet
  facet normal 0 0 -1
    outer loop
      vertex 14.5 6.1 10.55
      vertex 9.90233 6.22291 10.55
      vertex 11.3623 7.28367 10.55
    endloop
  endfacet
  facet normal 0 0 -1
    outer loop
      vertex 14.5 6.1 10.55
      vertex 8.09767 6.22291 10.55
      vertex 9.90233 6.22291 10.55
    endloop
  endfacet
  facet normal -0 0 -1
    outer loop
      vertex 6.63767 7.28367 10.55
      vertex 3.7 6.1 10.55
      vertex 6.08 9 10.55
    endloop
  endfacet
  facet normal -0 0 -1
    outer loop
      vertex 8.09767 6.22291 10.55
      vertex 3.7 6.1 10.55
      vertex 6.63767 7.28367 10.55
    endloop
  endfacet
  facet normal 0 0 -1
    outer loop
      vertex 3.7 6.1 10.55
      vertex 8.09767 6.22291 10.55
      vertex 14.5 6.1 10.55
    endloop
  endfacet
  facet normal 0 0 -1
    outer loop
      vertex 9.90233 11.7771 10.55
      vertex 14.5 13.3 10.55
      vertex 11.3623 10.7163 10.55
    endloop
  endfacet
  facet normal -0 0 -1
    outer loop
      vertex 14.5 13.3 10.55
      vertex 9.90233 11.7771 10.55
      vertex 14.5 16.9 10.55
    endloop
  endfacet
  facet normal 0 0 -1
    outer loop
      vertex 3.7 16.9 10.55
      vertex 9.90233 11.7771 10.55
      vertex 8.09767 11.7771 10.55
    endloop
  endfacet
  facet normal 0 0 -1
    outer loop
      vertex 3.7 16.9 10.55
      vertex 8.09767 11.7771 10.55
      vertex 6.63767 10.7163 10.55
    endloop
  endfacet
  facet normal 0 0 -1
    outer loop
      vertex 3.7 16.9 10.55
      vertex 6.08 9 10.55
      vertex 3.7 6.1 10.55
    endloop
  endfacet
  facet normal 0 0 -1
    outer loop
      vertex 9.90233 11.7771 10.55
      vertex 3.7 16.9 10.55
      vertex 14.5 16.9 10.55
    endloop
  endfacet
  facet normal 0 0 -1
    outer loop
      vertex 6.08 9 10.55
      vertex 3.7 16.9 10.55
      vertex 6.63767 10.7163 10.55
    endloop
  endfacet
  facet normal 0 0 -1
    outer loop
      vertex 6.8 8.175 10.55
      vertex 8.175 9.825 10.55
      vertex 8.175 8.175 10.55
    endloop
  endfacet
  facet normal -0 0 -1
    outer loop
      vertex 8.175 9.825 10.55
      vertex 6.8 8.175 10.55
      vertex 6.8 9.825 10.55
    endloop
  endfacet
  facet normal 0 0 -1
    outer loop
      vertex 8.175 8.175 10.55
      vertex 9.825 8.175 10.55
      vertex 9.825 6.8 10.55
    endloop
  endfacet
  facet normal 0 0 -1
    outer loop
      vertex 9.825 8.175 10.55
      vertex 8.175 8.175 10.55
      vertex 9.825 9.825 10.55
    endloop
  endfacet
  facet normal 0 0 -1
    outer loop
      vertex 8.175 8.175 10.55
      vertex 9.825 6.8 10.55
      vertex 8.175 6.8 10.55
    endloop
  endfacet
  facet normal 0 0 -1
    outer loop
      vertex 8.175 9.825 10.55
      vertex 9.825 9.825 10.55
      vertex 8.175 8.175 10.55
    endloop
  endfacet
  facet normal 0 0 -1
    outer loop
      vertex 9.825 9.825 10.55
      vertex 8.175 9.825 10.55
      vertex 9.825 11.2 10.55
    endloop
  endfacet
  facet normal -0 0 -1
    outer loop
      vertex 9.825 11.2 10.55
      vertex 8.175 9.825 10.55
      vertex 8.175 11.2 10.55
    endloop
  endfacet
  facet normal 0 0 -1
    outer loop
      vertex 9.825 8.175 10.55
      vertex 11.2 9.825 10.55
      vertex 11.2 8.175 10.55
    endloop
  endfacet
  facet normal -0 0 -1
    outer loop
      vertex 11.2 9.825 10.55
      vertex 9.825 8.175 10.55
      vertex 9.825 9.825 10.55
    endloop
  endfacet
endsolid OpenSCAD_Model
